<svg width="80" height="80" viewBox="0 0 80 80" fill="none" xmlns="http://www.w3.org/2000/svg">
<foreignObject x="-40" y="-40" width="160" height="160"><div xmlns="http://www.w3.org/1999/xhtml" style="backdrop-filter:blur(20px);clip-path:url(#bgblur_0_0_45_clip_path);height:100%;width:100%"></div></foreignObject><g data-figma-bg-blur-radius="40">
<rect x="1" y="1" width="78" height="78" rx="39" fill="url(#paint0_linear_0_45)"/>
<rect x="1" y="1" width="78" height="78" rx="39" stroke="white" stroke-opacity="0.1" stroke-width="2"/>
<rect x="1" y="1" width="78" height="78" rx="39" stroke="url(#paint1_linear_0_45)" stroke-width="2"/>
<rect x="1" y="1" width="78" height="78" rx="39" stroke="url(#paint2_linear_0_45)" stroke-width="2"/>
</g>
<rect x="25.0781" y="48.1523" width="30.7696" height="3.07696" rx="1.53848" fill="currentColor"/>
<path d="M40.4639 28.0186C46.485 28.0186 51.3661 32.8998 51.3662 38.9209V49.8232H29.5615V38.9209C29.5616 32.8999 34.4429 28.0187 40.4639 28.0186Z" fill="currentColor" stroke="white" stroke-width="2.81105"/>
<path d="M42.1143 54.1748C41.6399 54.338 41.0786 54.4414 40.459 54.4414C39.8393 54.4414 39.278 54.338 38.8037 54.1748H42.1143Z" stroke="white" stroke-width="2.81105"/>
<rect x="38.9219" y="23.5391" width="3.07696" height="6.15392" rx="1.53848" fill="currentColor"/>
<defs>
<clipPath id="bgblur_0_0_45_clip_path" transform="translate(40 40)"><rect x="1" y="1" width="78" height="78" rx="39"/>
</clipPath><linearGradient id="paint0_linear_0_45" x1="2.05761" y1="2" x2="25.1088" y2="84.1771" gradientUnits="userSpaceOnUse">
<stop stop-color="white" stop-opacity="0.2"/>
<stop offset="1" stop-color="white" stop-opacity="0.08"/>
</linearGradient>
<linearGradient id="paint1_linear_0_45" x1="59.6269" y1="68.284" x2="68.3711" y2="87.0743" gradientUnits="userSpaceOnUse">
<stop stop-color="white" stop-opacity="0"/>
<stop offset="1" stop-color="white" stop-opacity="0.6"/>
</linearGradient>
<linearGradient id="paint2_linear_0_45" x1="5.44776" y1="-6.50888" x2="29.5978" y2="11.1139" gradientUnits="userSpaceOnUse">
<stop stop-color="white" stop-opacity="0.6"/>
<stop offset="1" stop-color="white" stop-opacity="0"/>
</linearGradient>
</defs>
</svg>
