<svg width="90" height="90" viewBox="0 0 90 90" fill="none" xmlns="http://www.w3.org/2000/svg">
<foreignObject x="0" y="0" width="0" height="0"><div xmlns="http://www.w3.org/1999/xhtml" style="backdrop-filter:blur(10px);clip-path:url(#bgblur_0_0_27_clip_path);height:100%;width:100%"></div></foreignObject><g data-figma-bg-blur-radius="20">
<circle cx="45" cy="45" r="45" fill="#FF0202" fill-opacity="0.8"/>
<circle cx="45" cy="45" r="44" stroke="url(#paint0_linear_0_27)" stroke-opacity="0.5" stroke-width="2"/>
<circle cx="45" cy="45" r="44" stroke="url(#paint1_linear_0_27)" stroke-opacity="0.5" stroke-width="2"/>
</g>
<path d="M59.0905 50.788C58.64 51.2384 57.9807 51.409 57.3683 51.2336L53.1199 50.0175C52.5637 49.8582 52.1218 49.4348 51.939 48.8859L50.4788 44.5024C50.4788 44.5024 47.8788 42.7484 44.3348 42.7476C40.7907 42.7469 38.2047 44.4999 38.2047 44.4999L36.7429 48.8821C36.5597 49.4314 36.1172 49.8548 35.5604 50.0136L31.2973 51.2292C30.6851 51.4038 30.0264 51.2329 29.5763 50.7826L26.4317 47.6368C24.8303 46.0347 25.1617 43.3901 27.1917 42.385C31.3609 40.3206 38.2024 37.4861 44.3358 37.4874C50.4693 37.4885 57.3096 40.3258 61.4779 42.3919C63.5075 43.3979 63.8379 46.0426 62.2358 47.6439L59.0905 50.788Z" fill="currentColor"/>
<defs>
<clipPath id="bgblur_0_0_27_clip_path" transform="translate(0 0)"><circle cx="45" cy="45" r="45"/>
</clipPath><linearGradient id="paint0_linear_0_27" x1="10.5" y1="13" x2="22" y2="34.5" gradientUnits="userSpaceOnUse">
<stop stop-color="white"/>
<stop offset="1" stop-color="white" stop-opacity="0"/>
</linearGradient>
<linearGradient id="paint1_linear_0_27" x1="56" y1="65" x2="70" y2="84.5" gradientUnits="userSpaceOnUse">
<stop stop-color="white" stop-opacity="0"/>
<stop offset="1" stop-color="white"/>
</linearGradient>
</defs>
</svg>
